HIERARCHY
ROOT Hips
{
	OFFSET 0.000000 0.000000 0.000000
	CHANNELS 6 Xposition Yposition Zposition Xrotation Yrotation Zrotation
	JOINT Thigh.L
	{
		OFFSET 0.054102 0.027057 -0.093248
		CHANNELS 3 Xrotation Yrotation Zrotation
		JOINT Shin.L
		{
			OFFSET 0.059663 0.006917 -0.409095
			CHANNELS 3 Xrotation Yrotation Zrotation
			JOINT Foot.L
			{
				OFFSET -0.041235 0.031241 -0.433553
				CHANNELS 3 Xrotation Yrotation Zrotation
				JOINT Toe.L
				{
					OFFSET 0.047282 -0.125225 -0.063823
					CHANNELS 3 Xrotation Yrotation Zrotation
					End Site
					{
						OFFSET 0.000000 0.050000 0.000000
					}
				}
			}
		}
	}
	JOINT Thigh.R
	{
		OFFSET -0.059231 0.021590 -0.105663
		CHANNELS 3 Xrotation Yrotation Zrotation
		JOINT Shin.R
		{
			OFFSET -0.048775 0.014657 -0.390692
			CHANNELS 3 Xrotation Yrotation Zrotation
			JOINT Foot.R
			{
				OFFSET 0.013798 0.019609 -0.442543
				CHANNELS 3 Xrotation Yrotation Zrotation
				JOINT Toe.R
				{
					OFFSET -0.039039 -0.126096 -0.063712
					CHANNELS 3 Xrotation Yrotation Zrotation
					End Site
					{
						OFFSET 0.000000 0.050000 0.000000
					}
				}
			}
		}
	}
	JOINT Spine
	{
		OFFSET -0.002472 0.026463 0.111778
		CHANNELS 3 Xrotation Yrotation Zrotation
		JOINT Spine.2
		{
			OFFSET 0.008540 0.006148 0.138368
			CHANNELS 3 Xrotation Yrotation Zrotation
			JOINT Chest
			{
				OFFSET -0.010634 -0.022415 0.055106
				CHANNELS 3 Xrotation Yrotation Zrotation
				JOINT Neck
				{
					OFFSET -0.011864 0.025273 0.167044
					CHANNELS 3 Xrotation Yrotation Zrotation
					JOINT Head
					{
						OFFSET 0.025043 -0.020581 0.167445
						CHANNELS 3 Xrotation Yrotation Zrotation
						End Site
						{
							OFFSET 0.000000 0.050000 0.000000
						}
					}
				}
				JOINT Clavicle.L
				{
					OFFSET 0.047106 0.004519 0.086043
					CHANNELS 3 Xrotation Yrotation Zrotation
					JOINT UpperArm.L
					{
						OFFSET 0.125843 0.013217 0.057524
						CHANNELS 3 Xrotation Yrotation Zrotation
						JOINT ForeArm.L
						{
							OFFSET 0.268411 0.042112 -0.074763
							CHANNELS 3 Xrotation Yrotation Zrotation
							JOINT Hand.L
							{
								OFFSET 0.271502 0.001077 0.021891
								CHANNELS 3 Xrotation Yrotation Zrotation
								JOINT Thumb1.L
								{
									OFFSET 0.154611 0.000474 0.009644
									CHANNELS 3 Xrotation Yrotation Zrotation
									JOINT Thumb2.L
									{
										OFFSET 0.029903 0.000119 0.002411
										CHANNELS 3 Xrotation Yrotation Zrotation
										End Site
										{
											OFFSET 0.024919 0.000099 0.002009
										}
									}
								}
								JOINT Index1.L
								{
									OFFSET 0.137611 0.000474 0.009644
									CHANNELS 3 Xrotation Yrotation Zrotation
									JOINT Index2.L
									{
										OFFSET 0.029903 0.000119 0.002411
										CHANNELS 3 Xrotation Yrotation Zrotation
										JOINT Index3.L
										{
											OFFSET 0.021929 0.000087 0.001768
											CHANNELS 3 Xrotation Yrotation Zrotation
											End Site
											{
												OFFSET 0.017942 0.000071 0.001447
											}
										}
									}
								}
								JOINT Middle1.L
								{
									OFFSET 0.119611 0.000474 0.009644
									CHANNELS 3 Xrotation Yrotation Zrotation
									JOINT Middle2.L
									{
										OFFSET 0.030899 0.000123 0.002491
										CHANNELS 3 Xrotation Yrotation Zrotation
										JOINT Middle3.L
										{
											OFFSET 0.021929 0.000087 0.001768
											CHANNELS 3 Xrotation Yrotation Zrotation
											End Site
											{
												OFFSET 0.017942 0.000071 0.001447
											}
										}
									}
								}
								JOINT Ring1.L
								{
									OFFSET 0.101611 0.000474 0.009644
									CHANNELS 3 Xrotation Yrotation Zrotation
									JOINT Ring2.L
									{
										OFFSET 0.028906 0.000115 0.002331
										CHANNELS 3 Xrotation Yrotation Zrotation
										JOINT Ring3.L
										{
											OFFSET 0.019935 0.000079 0.001607
											CHANNELS 3 Xrotation Yrotation Zrotation
											End Site
											{
												OFFSET 0.016945 0.000067 0.001366
											}
										}
									}
								}
								JOINT Pinky1.L
								{
									OFFSET 0.085611 0.000474 0.009644
									CHANNELS 3 Xrotation Yrotation Zrotation
									JOINT Pinky2.L
									{
										OFFSET 0.023922 0.000095 0.001929
										CHANNELS 3 Xrotation Yrotation Zrotation
										JOINT Pinky3.L
										{
											OFFSET 0.016945 0.000067 0.001366
											CHANNELS 3 Xrotation Yrotation Zrotation
											End Site
											{
												OFFSET 0.013955 0.000055 0.001125
											}
										}
									}
								}
							}
						}
					}
				}
				JOINT Clavicle.R
				{
					OFFSET -0.047666 0.010578 0.085170
					CHANNELS 3 Xrotation Yrotation Zrotation
					JOINT UpperArm.R
					{
						OFFSET -0.109157 0.009559 0.053818
						CHANNELS 3 Xrotation Yrotation Zrotation
						JOINT ForeArm.R
						{
							OFFSET -0.286534 0.027176 -0.039770
							CHANNELS 3 Xrotation Yrotation Zrotation
							JOINT Hand.R
							{
								OFFSET -0.267855 0.014434 -0.005290
								CHANNELS 3 Xrotation Yrotation Zrotation
								JOINT Thumb1.R
								{
									OFFSET -0.154803 0.006456 -0.002366
									CHANNELS 3 Xrotation Yrotation Zrotation
									JOINT Thumb2.R
									{
										OFFSET -0.029951 0.001614 -0.000591
										CHANNELS 3 Xrotation Yrotation Zrotation
										End Site
										{
											OFFSET -0.024959 0.001345 -0.000493
										}
									}
								}
								JOINT Index1.R
								{
									OFFSET -0.137803 0.006456 -0.002366
									CHANNELS 3 Xrotation Yrotation Zrotation
									JOINT Index2.R
									{
										OFFSET -0.029951 0.001614 -0.000591
										CHANNELS 3 Xrotation Yrotation Zrotation
										JOINT Index3.R
										{
											OFFSET -0.021964 0.001184 -0.000434
											CHANNELS 3 Xrotation Yrotation Zrotation
											End Site
											{
												OFFSET -0.017970 0.000968 -0.000355
											}
										}
									}
								}
								JOINT Middle1.R
								{
									OFFSET -0.119803 0.006456 -0.002366
									CHANNELS 3 Xrotation Yrotation Zrotation
									JOINT Middle2.R
									{
										OFFSET -0.030949 0.001668 -0.000611
										CHANNELS 3 Xrotation Yrotation Zrotation
										JOINT Middle3.R
										{
											OFFSET -0.021964 0.001184 -0.000434
											CHANNELS 3 Xrotation Yrotation Zrotation
											End Site
											{
												OFFSET -0.017970 0.000968 -0.000355
											}
										}
									}
								}
								JOINT Ring1.R
								{
									OFFSET -0.101803 0.006456 -0.002366
									CHANNELS 3 Xrotation Yrotation Zrotation
									JOINT Ring2.R
									{
										OFFSET -0.028952 0.001560 -0.000572
										CHANNELS 3 Xrotation Yrotation Zrotation
										JOINT Ring3.R
										{
											OFFSET -0.019967 0.001076 -0.000394
											CHANNELS 3 Xrotation Yrotation Zrotation
											End Site
											{
												OFFSET -0.016972 0.000915 -0.000335
											}
										}
									}
								}
								JOINT Pinky1.R
								{
									OFFSET -0.085803 0.006456 -0.002366
									CHANNELS 3 Xrotation Yrotation Zrotation
									JOINT Pinky2.R
									{
										OFFSET -0.023961 0.001291 -0.000473
										CHANNELS 3 Xrotation Yrotation Zrotation
										JOINT Pinky3.R
										{
											OFFSET -0.016972 0.000915 -0.000335
											CHANNELS 3 Xrotation Yrotation Zrotation
											End Site
											{
												OFFSET -0.013977 0.000753 -0.000276
											}
										}
									}
								}
							}
						}
					}
				}
			}
		}
	}
}
MOTION
Frames: 5
Frame Time: 0.04166667
0.003085 -0.059279 1.215008 -7.780724 -0.094811 -1.002691 7.063988 -2.634188 2.655323 4.967240 1.961842 -8.378694 -7.120897 -2.090106 10.247432 -0.207728 -1.934898 -1.343739 3.741174 3.817552 -3.576310 12.200557 0.619496 3.882421 -8.020395 -2.331562 -7.435058 -0.503678 -1.463141 0.603974 4.992664 0.391684 2.953509 -0.538599 1.121132 -0.360965 3.714931 0.157628 0.442267 5.059917 1.870811 -0.072674 0.570697 -2.546700 1.340313 0.444754 18.714273 -4.036954 25.483221 47.719535 -24.363099 18.438705 -3.714914 -26.447917 -2.472279 -5.592583 -7.890623 0.000000 0.000000 0.000000 0.000000 0.000000 0.000000 0.000000 0.000000 0.000000 0.000000 0.000000 0.000000 0.000000 0.000000 0.000000 0.000000 0.000000 0.000000 0.000000 0.000000 0.000000 0.000000 0.000000 0.000000 0.000000 0.000000 0.000000 0.000000 0.000000 0.000000 0.000000 0.000000 0.000000 0.000000 0.000000 0.000000 0.000000 0.000000 0.000000 0.000000 0.000000 0.000000 1.779421 -16.025332 9.535773 30.680640 -51.488209 26.811788 12.484113 3.679644 30.201871 -2.931260 3.515673 4.289211 0.000000 0.000000 0.000000 0.000000 0.000000 0.000000 0.000000 0.000000 0.000000 0.000000 0.000000 0.000000 0.000000 0.000000 0.000000 0.000000 0.000000 0.000000 0.000000 0.000000 0.000000 0.000000 0.000000 0.000000 0.000000 0.000000 0.000000 0.000000 0.000000 0.000000 0.000000 0.000000 0.000000 0.000000 0.000000 0.000000 0.000000 0.000000 0.000000 0.000000 0.000000 0.000000
0.002269 -0.058553 1.215031 -7.735360 -0.038774 -0.992535 7.104823 -2.653309 2.693460 4.852660 1.951811 -8.249603 -7.133849 -2.075074 10.197638 -0.191525 -1.953880 -1.366811 3.732521 3.806363 -3.634695 12.170525 0.592046 3.875950 -7.960642 -2.386309 -7.394187 -0.472018 -1.466106 0.612405 4.919027 0.380310 2.963101 -0.418590 1.067989 -0.344834 3.622506 0.164435 0.425523 4.973718 1.882686 -0.051947 0.468355 -2.519194 1.317826 0.423275 18.695560 -4.044823 25.659346 47.711618 -24.542800 18.657634 -3.669374 -26.329409 -2.558460 -5.423876 -7.920353 0.000000 0.000000 0.000000 0.000000 0.000000 0.000000 0.000000 0.000000 0.000000 0.000000 0.000000 0.000000 0.000000 0.000000 0.000000 0.000000 0.000000 0.000000 0.000000 0.000000 0.000000 0.000000 0.000000 0.000000 0.000000 0.000000 0.000000 0.000000 0.000000 0.000000 0.000000 0.000000 0.000000 0.000000 0.000000 0.000000 0.000000 0.000000 0.000000 0.000000 0.000000 0.000000 1.801871 -16.033189 9.536310 30.764863 -51.431573 26.936617 12.506435 3.682521 29.938147 -3.017223 3.584934 4.276617 0.000000 0.000000 0.000000 0.000000 0.000000 0.000000 0.000000 0.000000 0.000000 0.000000 0.000000 0.000000 0.000000 0.000000 0.000000 0.000000 0.000000 0.000000 0.000000 0.000000 0.000000 0.000000 0.000000 0.000000 0.000000 0.000000 0.000000 0.000000 0.000000 0.000000 0.000000 0.000000 0.000000 0.000000 0.000000 0.000000 0.000000 0.000000 0.000000 0.000000 0.000000 0.000000
0.002626 -0.058649 1.215127 -7.754031 -0.048804 -0.928646 7.183098 -2.636918 2.718958 4.726151 1.902267 -8.104717 -7.118503 -1.999067 10.133097 -0.191298 -1.968077 -1.378626 3.709756 3.778334 -3.656374 12.258966 0.587842 3.748290 -7.928417 -2.314355 -7.407211 -0.473978 -1.469689 0.618490 4.894143 0.344981 2.949607 -0.315676 1.014151 -0.359719 3.543519 0.195346 0.403238 4.950710 1.906708 -0.101498 0.550221 -2.466938 1.315578 0.453292 18.714018 -4.086609 25.779177 47.698971 -24.697930 18.554016 -3.666825 -26.171117 -2.669139 -5.432705 -7.993302 0.000000 0.000000 0.000000 0.000000 0.000000 0.000000 0.000000 0.000000 0.000000 0.000000 0.000000 0.000000 0.000000 0.000000 0.000000 0.000000 0.000000 0.000000 0.000000 0.000000 0.000000 0.000000 0.000000 0.000000 0.000000 0.000000 0.000000 0.000000 0.000000 0.000000 0.000000 0.000000 0.000000 0.000000 0.000000 0.000000 0.000000 0.000000 0.000000 0.000000 0.000000 0.000000 1.805385 -16.095738 9.598329 30.831077 -51.379373 26.981569 12.420424 3.660908 29.834483 -3.049426 3.788445 4.378439 0.000000 0.000000 0.000000 0.000000 0.000000 0.000000 0.000000 0.000000 0.000000 0.000000 0.000000 0.000000 0.000000 0.000000 0.000000 0.000000 0.000000 0.000000 0.000000 0.000000 0.000000 0.000000 0.000000 0.000000 0.000000 0.000000 0.000000 0.000000 0.000000 0.000000 0.000000 0.000000 0.000000 0.000000 0.000000 0.000000 0.000000 0.000000 0.000000 0.000000 0.000000 0.000000
0.002420 -0.058986 1.215194 -7.755506 -0.072403 -0.891608 7.192270 -2.575094 2.676922 4.656138 1.886256 -8.038413 -7.073034 -2.017712 10.142765 -0.205618 -1.982120 -1.388878 3.621472 3.824028 -3.641148 12.385310 0.573521 3.690412 -7.867011 -2.273795 -7.422944 -0.485802 -1.467321 0.624209 4.842718 0.322028 2.931650 -0.232654 0.997475 -0.369690 3.467145 0.247396 0.400733 4.920291 1.902951 -0.135247 0.653584 -2.449957 1.304391 0.476732 18.777762 -4.108774 25.865356 47.640661 -24.805206 18.469146 -3.661341 -26.115568 -2.801420 -5.431186 -8.091571 0.000000 0.000000 0.000000 0.000000 0.000000 0.000000 0.000000 0.000000 0.000000 0.000000 0.000000 0.000000 0.000000 0.000000 0.000000 0.000000 0.000000 0.000000 0.000000 0.000000 0.000000 0.000000 0.000000 0.000000 0.000000 0.000000 0.000000 0.000000 0.000000 0.000000 0.000000 0.000000 0.000000 0.000000 0.000000 0.000000 0.000000 0.000000 0.000000 0.000000 0.000000 0.000000 1.829352 -16.168989 9.627978 30.824753 -51.307208 26.979715 12.348948 3.659550 29.747046 -3.135580 3.899576 4.512614 0.000000 0.000000 0.000000 0.000000 0.000000 0.000000 0.000000 0.000000 0.000000 0.000000 0.000000 0.000000 0.000000 0.000000 0.000000 0.000000 0.000000 0.000000 0.000000 0.000000 0.000000 0.000000 0.000000 0.000000 0.000000 0.000000 0.000000 0.000000 0.000000 0.000000 0.000000 0.000000 0.000000 0.000000 0.000000 0.000000 0.000000 0.000000 0.000000 0.000000 0.000000 0.000000
0.002581 -0.058962 1.215258 -7.758971 -0.111478 -0.858221 7.226371 -2.516061 2.607386 4.586969 1.866875 -8.064135 -6.998723 -2.054757 10.180417 -0.198260 -1.965927 -1.389298 3.638437 3.853337 -3.612279 12.376718 0.584565 3.679834 -7.836886 -2.236757 -7.462318 -0.475984 -1.475842 0.621920 4.805703 0.319266 2.903196 -0.212430 1.000629 -0.365140 3.461892 0.275819 0.397029 4.997283 1.889603 -0.190241 0.808933 -2.446825 1.271289 0.501756 18.798000 -4.078432 25.915213 47.603105 -24.892459 18.393130 -3.640288 -26.081767 -2.899257 -5.502037 -8.206996 0.000000 0.000000 0.000000 0.000000 0.000000 0.000000 0.000000 0.000000 0.000000 0.000000 0.000000 0.000000 0.000000 0.000000 0.000000 0.000000 0.000000 0.000000 0.000000 0.000000 0.000000 0.000000 0.000000 0.000000 0.000000 0.000000 0.000000 0.000000 0.000000 0.000000 0.000000 0.000000 0.000000 0.000000 0.000000 0.000000 0.000000 0.000000 0.000000 0.000000 0.000000 0.000000 1.827261 -16.196320 9.604361 30.855503 -51.308724 27.029786 12.206635 3.607179 29.673344 -3.198034 4.011647 4.660070 0.000000 0.000000 0.000000 0.000000 0.000000 0.000000 0.000000 0.000000 0.000000 0.000000 0.000000 0.000000 0.000000 0.000000 0.000000 0.000000 0.000000 0.000000 0.000000 0.000000 0.000000 0.000000 0.000000 0.000000 0.000000 0.000000 0.000000 0.000000 0.000000 0.000000 0.000000 0.000000 0.000000 0.000000 0.000000 0.000000 0.000000 0.000000 0.000000 0.000000 0.000000 0.000000
